# xmcd
#
# Track frame offsets:
#	174
#	17232
#	31542
#	46548
#	64241
#	80095
#	96490
#	108198
#	128984
#	144020
#	157677
#	168032
#	177209
#
# Disc length: 2615 seconds
#
# Revision: 0
# Processed by: cddbd v1.4PL0 Copyright (c) Steve Scherf et al.
# Submitted via: EasyCDDAExtractor 4.6.9.1
#
DISCID=920a350d
DTITLE=Ross Nickerson - Blazing The West
DYEAR=2003
DGENRE=Bluegrass
TTITLE0=El Cumbanchero
TTITLE1=San Antonio Rose
TTITLE2=Garcia
TTITLE3=Panhandle Rag
TTITLE4=Ghost Riders In The Sky
TTITLE5=Texas Blues
TTITLE6=Red River Valley
TTITLE7=Gunslinger's Blues
TTITLE8=Lonesome Cowboy
TTITLE9=Jesse James
TTITLE10=Don't Fence Me In
TTITLE11=Standing Eagle
TTITLE12=Streets Of Laredo
EXTD=
EXTT0=
EXTT1=
EXTT2=
EXTT3=
EXTT4=
EXTT5=
EXTT6=
EXTT7=
EXTT8=
EXTT9=
EXTT10=
EXTT11=
EXTT12=
PLAYORDER=
